<svg xmlns="http://www.w3.org/2000/svg" viewBox="0 0 800 450" role="img" aria-labelledby="t d">
<title id="t">The answer held up</title>
<desc id="d">A clipboard shows three ticked lines: problem, mechanism, tradeoff. A sheep stands beside it looking pleased. Above the shepherd, a thought bubble asks whether he lost them, and it is crossed out.</desc>
<rect x="1.5" y="1.5" width="797" height="447" rx="24" fill="#FBF8F1" stroke="#1D2420" stroke-width="3"/>
<clipPath id="panel"><rect x="3" y="3" width="794" height="444" rx="22"/></clipPath>
<g clip-path="url(#panel)">
<circle cx="700" cy="80" r="34" fill="#E8D6B8"/>
<path d="M0 300 C160 250 300 280 420 250 C540 220 660 240 800 210 V450 H0 Z" fill="#DCE3D2"/>
<path d="M0 370 C180 335 330 365 470 340 C600 318 700 330 800 318 V450 H0 Z" fill="#C4D1BA"/>

<g transform="translate(120 110)">
<rect x="0" y="0" width="230" height="280" rx="12" fill="#C08A3E" stroke="#1D2420" stroke-width="3"/>
<rect x="18" y="30" width="194" height="232" rx="6" fill="#fff" stroke="#1D2420" stroke-width="3"/>
<rect x="80" y="-12" width="70" height="28" rx="8" fill="#8A8F89" stroke="#1D2420" stroke-width="3"/>
<g transform="translate(36 70)"><rect x="0" y="-18" width="26" height="26" rx="5" fill="#C4D1BA" stroke="#1D2420" stroke-width="2.5"/><path d="M5 -5 L11 2 L22 -12" stroke="#3F5A3C" stroke-width="4" fill="none" stroke-linecap="round" stroke-linejoin="round"/><text x="42" y="0" text-anchor="start" font-family="Karla, Helvetica, Arial, sans-serif" font-weight="700" font-size="15" fill="#1D2420" letter-spacing="1">PROBLEM</text></g><g transform="translate(36 132)"><rect x="0" y="-18" width="26" height="26" rx="5" fill="#C4D1BA" stroke="#1D2420" stroke-width="2.5"/><path d="M5 -5 L11 2 L22 -12" stroke="#3F5A3C" stroke-width="4" fill="none" stroke-linecap="round" stroke-linejoin="round"/><text x="42" y="0" text-anchor="start" font-family="Karla, Helvetica, Arial, sans-serif" font-weight="700" font-size="15" fill="#1D2420" letter-spacing="1">MECHANISM</text></g><g transform="translate(36 194)"><rect x="0" y="-18" width="26" height="26" rx="5" fill="#C4D1BA" stroke="#1D2420" stroke-width="2.5"/><path d="M5 -5 L11 2 L22 -12" stroke="#3F5A3C" stroke-width="4" fill="none" stroke-linecap="round" stroke-linejoin="round"/><text x="42" y="0" text-anchor="start" font-family="Karla, Helvetica, Arial, sans-serif" font-weight="700" font-size="15" fill="#1D2420" letter-spacing="1">TRADEOFF</text></g>
</g>
<g transform="translate(440 420) scale(-0.7 0.7) translate(-171 -520)">
<g stroke="#1D2420" stroke-width="3">
<line x1="150" y1="498" x2="150" y2="520" stroke-width="5" stroke-linecap="round"/>
<line x1="192" y1="498" x2="192" y2="520" stroke-width="5" stroke-linecap="round"/>
<circle cx="152" cy="476" r="20" fill="#fff"/><circle cx="176" cy="464" r="22" fill="#fff"/><circle cx="200" cy="476" r="20" fill="#fff"/>
<circle cx="164" cy="492" r="17" fill="#fff"/><circle cx="190" cy="492" r="17" fill="#fff"/>
<ellipse cx="128" cy="480" rx="13" ry="15" fill="#2A2A2A"/>
<ellipse cx="118" cy="470" rx="7" ry="4" fill="#2A2A2A" transform="rotate(-25 118 470)"/>
</g>
<circle cx="124" cy="478" r="2.5" fill="#fff"/>
</g>
<g transform="translate(640 420) scale(-0.62 0.62) translate(-392 -520)">
<path d="M470 520 V252 a24 24 0 0 0 -48 0 v8" stroke="#6B4423" stroke-width="7" stroke-linecap="round" fill="none"/>
<rect x="372" y="452" width="14" height="62" rx="6" fill="#6E4A33" stroke="#1D2420" stroke-width="2.5"/>
<rect x="398" y="452" width="14" height="62" rx="6" fill="#6E4A33" stroke="#1D2420" stroke-width="2.5"/>
<ellipse cx="378" cy="516" rx="15" ry="6" fill="#3B2A1E"/><ellipse cx="408" cy="516" rx="15" ry="6" fill="#3B2A1E"/>
<path d="M352 332 Q390 318 428 332 L446 464 Q390 476 334 464 Z" fill="#3F5A3C" stroke="#1D2420" stroke-width="3"/>
<path d="M354 334 L380 326 L442 442 L430 462 Z" fill="#B23A2E" stroke="#1D2420" stroke-width="2.5"/>
<path d="M370 350 L388 343 M388 382 L407 374 M406 414 L425 406" stroke="#7A1F18" stroke-width="3"/>
<rect x="340" y="400" width="100" height="10" rx="4" fill="#C08A3E" stroke="#1D2420" stroke-width="2.5"/>
<rect x="381" y="312" width="16" height="16" fill="#7A4A2E"/>
<circle cx="389" cy="286" r="34" fill="#7A4A2E" stroke="#1D2420" stroke-width="3"/>
<circle cx="422" cy="291" r="6" fill="#7A4A2E" stroke="#1D2420" stroke-width="2.5"/>
<path d="M356 282 Q356 248 389 248 Q423 248 423 282 Q413 262 389 262 Q365 262 356 282 Z" fill="#1D1A17"/>
<ellipse cx="377" cy="289" rx="6" ry="7" fill="#fff" stroke="#1D2420" stroke-width="2.5"/>
<ellipse cx="399" cy="289" rx="6" ry="7" fill="#fff" stroke="#1D2420" stroke-width="2.5"/>
<circle cx="374" cy="286" r="3" fill="#1D2420"/><circle cx="396" cy="286" r="3" fill="#1D2420"/>
<path d="M368 277 Q376 271 384 275 M392 271 Q400 264 408 270" stroke="#1D2420" stroke-width="2.5" stroke-linecap="round" fill="none"/>
<path d="M381 306 Q390 311 398 304" stroke="#1D2420" stroke-width="3" stroke-linecap="round" fill="none"/>
<path d="M358 340 L343 374 L374 326" stroke="#3F5A3C" stroke-width="16" stroke-linecap="round" stroke-linejoin="round" fill="none"/>
<circle cx="378" cy="323" r="9" fill="#7A4A2E" stroke="#1D2420" stroke-width="2.5"/>
<path d="M424 342 L446 374 L464 362" stroke="#3F5A3C" stroke-width="16" stroke-linecap="round" stroke-linejoin="round" fill="none"/>
<circle cx="469" cy="360" r="9" fill="#7A4A2E" stroke="#1D2420" stroke-width="2.5"/>
</g>
<g>
<g><rect x="470" y="70" width="230" height="56" rx="28.0" fill="#fff" stroke="#1D2420" stroke-width="3"/><path d="M666 124 L680 144 L686 124" fill="#fff" stroke="#1D2420" stroke-width="3" stroke-linejoin="round"/><rect x="664" y="120" width="24" height="6" fill="#fff"/><text x="585.0" y="105.0" text-anchor="middle" font-family="Fraunces, Georgia, serif" font-style="italic" font-size="20" fill="#1D2420">Did I lose them?</text></g>
<line x1="480" y1="126" x2="690" y2="70" stroke="#B23A2E" stroke-width="5" stroke-linecap="round"/>
</g>

</g>
</svg>